<?xml version="1.0" encoding="utf-8"?>
<!-- Generator: Adobe Illustrator 16.0.0, SVG Export Plug-In . SVG Version: 6.00 Build 0)  -->
<!DOCTYPE svg PUBLIC "-//W3C//DTD SVG 1.1//EN" "http://www.w3.org/Graphics/SVG/1.1/DTD/svg11.dtd">
<svg version="1.1" id="Calque_1" xmlns="http://www.w3.org/2000/svg" xmlns:xlink="http://www.w3.org/1999/xlink" x="0px" y="0px"
	 width="400px" height="400px" viewBox="0 0 400 400" enable-background="new 0 0 400 400" xml:space="preserve">
<path d="M116.456,325.629h-4.573l-5.798-8.009c-0.219,0.008-0.415,0.015-0.587,0.019c-0.173,0.004-0.327,0.006-0.462,0.006
	c-0.109,0-0.227-0.002-0.354-0.006c-0.126-0.004-0.257-0.011-0.391-0.019v4.977c0,1.079,0.118,1.747,0.353,2.008
	c0.32,0.371,0.801,0.558,1.44,0.558h0.67v0.467h-7.339v-0.467h0.644c0.716,0,1.234-0.237,1.554-0.708
	c0.177-0.261,0.266-0.881,0.266-1.857V311.53c0-1.078-0.119-1.748-0.354-2.009c-0.328-0.371-0.817-0.556-1.466-0.556h-0.644v-0.467
	h6.241c1.802,0,3.141,0.134,4.017,0.403c0.43,0.127,0.832,0.316,1.207,0.569c0.375,0.253,0.703,0.552,0.986,0.896
	c0.281,0.346,0.505,0.733,0.668,1.162c0.165,0.43,0.247,0.889,0.247,1.378c0,0.529-0.084,1.025-0.252,1.483
	c-0.169,0.459-0.428,0.878-0.777,1.257c-0.35,0.38-0.79,0.707-1.32,0.985c-0.53,0.278-1.154,0.497-1.87,0.657l3.538,4.915
	c0.816,1.137,1.512,1.886,2.084,2.248c0.589,0.37,1.348,0.605,2.274,0.708V325.629z M104.291,316.824
	c0.16,0,0.299,0.002,0.417,0.006c0.118,0.004,0.215,0.006,0.291,0.006c0.817,0,1.535-0.095,2.154-0.284
	c0.619-0.188,1.135-0.452,1.548-0.789s0.722-0.735,0.928-1.194c0.207-0.459,0.31-0.958,0.31-1.497c0-0.53-0.089-1.018-0.266-1.458
	c-0.177-0.443-0.428-0.823-0.751-1.144c-0.325-0.32-0.712-0.568-1.163-0.745s-0.946-0.266-1.484-0.266
	c-0.244,0-0.53,0.019-0.859,0.057c-0.329,0.037-0.703,0.1-1.124,0.183V316.824z"/>
<path d="M129.359,319.894h-6.632l-1.162,2.703c-0.287,0.657-0.43,1.154-0.43,1.491c0,0.135,0.023,0.258,0.069,0.372
	c0.046,0.113,0.141,0.219,0.285,0.316c0.143,0.096,0.345,0.177,0.606,0.239c0.261,0.063,0.602,0.112,1.023,0.146v0.467h-5.395
	v-0.467c0.708-0.128,1.171-0.292,1.39-0.493c0.219-0.203,0.444-0.508,0.676-0.916c0.231-0.408,0.482-0.925,0.751-1.547l6.026-14.1
	h0.442l5.963,14.25c0.244,0.589,0.469,1.063,0.676,1.421c0.206,0.358,0.419,0.637,0.638,0.834c0.219,0.198,0.457,0.335,0.714,0.411
	c0.257,0.075,0.562,0.122,0.916,0.14v0.467h-6.759v-0.467c0.337-0.018,0.62-0.055,0.847-0.115c0.228-0.058,0.406-0.135,0.537-0.228
	c0.131-0.092,0.223-0.197,0.278-0.315c0.055-0.117,0.083-0.249,0.083-0.392c0.008-0.185-0.032-0.423-0.121-0.713
	c-0.088-0.291-0.217-0.639-0.385-1.043L129.359,319.894z M129.005,318.958l-2.905-6.923l-2.981,6.923H129.005z"/>
<path d="M137.158,308.499h4.648l10.473,12.847v-9.879c0-1.052-0.118-1.709-0.354-1.97c-0.32-0.354-0.812-0.531-1.477-0.531h-0.594
	v-0.467h5.962v0.467h-0.606c-0.724,0-1.237,0.219-1.541,0.657c-0.186,0.262-0.278,0.875-0.278,1.844v14.44h-0.455l-11.294-13.795
	v10.548c0,1.053,0.114,1.71,0.342,1.971c0.311,0.354,0.804,0.531,1.477,0.531h0.606v0.467h-5.962v-0.467h0.594
	c0.733,0,1.251-0.22,1.554-0.658c0.185-0.261,0.277-0.876,0.277-1.844v-11.914c-0.252-0.294-0.463-0.529-0.631-0.706
	c-0.168-0.177-0.329-0.323-0.48-0.437c-0.151-0.113-0.315-0.206-0.492-0.278c-0.177-0.071-0.396-0.152-0.657-0.246
	c-0.245-0.075-0.615-0.113-1.111-0.113V308.499z"/>
<path d="M157.919,325.629v-0.467h0.644c0.716,0,1.23-0.232,1.542-0.696c0.186-0.269,0.278-0.893,0.278-1.869V311.53
	c0-1.078-0.119-1.748-0.354-2.009c-0.329-0.371-0.818-0.556-1.466-0.556h-0.644v-0.467h6.973c2.561,0,4.506,0.29,5.837,0.871
	c1.339,0.582,2.413,1.55,3.221,2.906c0.817,1.347,1.225,2.913,1.225,4.698c0,1.265-0.204,2.426-0.613,3.487
	c-0.408,1.062-1.015,1.974-1.819,2.735c-0.804,0.763-1.806,1.357-3.006,1.787c-1.2,0.43-2.587,0.645-4.163,0.645H157.919z
	 M162.809,324.391c1.052,0.235,1.949,0.354,2.69,0.354c0.969,0,1.868-0.179,2.698-0.536c0.829-0.358,1.547-0.867,2.153-1.529
	c0.607-0.661,1.082-1.463,1.428-2.407c0.346-0.942,0.518-2,0.518-3.17c0-1.179-0.17-2.24-0.512-3.183
	c-0.34-0.944-0.816-1.746-1.427-2.407c-0.61-0.662-1.339-1.169-2.186-1.522c-0.846-0.354-1.771-0.53-2.773-0.53
	c-0.379,0-0.783,0.031-1.212,0.094c-0.43,0.064-0.888,0.154-1.376,0.271V324.391z"/>
<path d="M186.917,308.106c2.214,0,4.139,0.847,5.773,2.54c1.634,1.685,2.451,3.789,2.451,6.316c0,2.602-0.821,4.762-2.463,6.48
	c-1.643,1.719-3.63,2.577-5.963,2.577c-2.366,0-4.35-0.838-5.949-2.515c-1.601-1.676-2.401-3.844-2.401-6.506
	c0-2.72,0.927-4.938,2.779-6.657C182.752,308.853,184.676,308.106,186.917,308.106z M186.676,309.029
	c-0.868,0-1.638,0.186-2.312,0.556c-0.674,0.371-1.24,0.899-1.699,1.585c-0.459,0.687-0.809,1.519-1.048,2.495
	c-0.24,0.978-0.361,2.072-0.361,3.285c0,1.204,0.118,2.307,0.354,3.31c0.236,1.002,0.583,1.863,1.042,2.584
	c0.458,0.719,1.025,1.279,1.699,1.68c0.674,0.399,1.453,0.6,2.337,0.6c0.791,0,1.526-0.151,2.204-0.454
	c0.678-0.304,1.265-0.773,1.762-1.409c0.497-0.636,0.886-1.447,1.168-2.432c0.282-0.985,0.423-2.16,0.423-3.524
	c0-1.306-0.116-2.471-0.347-3.492c-0.231-1.024-0.581-1.89-1.048-2.597c-0.468-0.708-1.049-1.248-1.744-1.624
	C188.413,309.217,187.603,309.029,186.676,309.029z"/>
<path d="M208.019,325.629l-6.62-14.414v11.445c0,1.053,0.113,1.71,0.341,1.971c0.312,0.354,0.805,0.531,1.479,0.531h0.606v0.467
	h-5.963v-0.467h0.606c0.725,0,1.237-0.22,1.541-0.658c0.185-0.261,0.278-0.876,0.278-1.844v-11.193c0-0.741-0.085-1.287-0.253-1.643
	c-0.059-0.126-0.139-0.241-0.24-0.347c-0.101-0.104-0.238-0.195-0.41-0.271c-0.174-0.076-0.382-0.135-0.626-0.177
	s-0.543-0.063-0.896-0.063v-0.467h4.851l6.216,13.403l6.114-13.403h4.851v0.467h-0.594c-0.731,0-1.25,0.219-1.554,0.657
	c-0.185,0.262-0.278,0.875-0.278,1.844v11.193c0,1.053,0.118,1.71,0.354,1.971c0.312,0.354,0.805,0.531,1.479,0.531h0.594v0.467
	h-7.276v-0.467h0.607c0.724,0,1.237-0.22,1.541-0.658c0.184-0.261,0.277-0.876,0.277-1.844v-11.445l-6.607,14.414H208.019z"/>
<path d="M241.353,308.106v5.925h-0.467c-0.152-1.137-0.425-2.041-0.822-2.715c-0.193-0.337-0.435-0.641-0.726-0.91
	s-0.606-0.499-0.947-0.689c-0.341-0.188-0.704-0.337-1.086-0.442c-0.384-0.104-0.77-0.156-1.157-0.156
	c-0.429,0-0.828,0.073-1.199,0.221c-0.37,0.146-0.693,0.343-0.967,0.587c-0.272,0.244-0.486,0.524-0.638,0.841
	c-0.151,0.315-0.228,0.642-0.228,0.979c0,0.473,0.109,0.883,0.329,1.231c0.219,0.35,0.52,0.672,0.903,0.967
	c0.383,0.295,0.834,0.581,1.352,0.859c0.518,0.277,1.08,0.576,1.687,0.896c0.682,0.362,1.33,0.717,1.945,1.061
	c0.615,0.346,1.155,0.727,1.624,1.145c0.466,0.416,0.839,0.893,1.117,1.427c0.278,0.536,0.418,1.178,0.418,1.927
	c0,0.64-0.134,1.249-0.399,1.825c-0.265,0.577-0.636,1.082-1.111,1.517c-0.476,0.433-1.045,0.778-1.705,1.035
	c-0.661,0.257-1.388,0.386-2.18,0.386c-0.296,0-0.547-0.004-0.758-0.014c-0.211-0.008-0.412-0.026-0.606-0.057
	c-0.193-0.028-0.395-0.075-0.601-0.139c-0.206-0.063-0.453-0.149-0.739-0.259c-0.201-0.076-0.408-0.145-0.618-0.208
	c-0.211-0.063-0.404-0.116-0.581-0.158s-0.326-0.075-0.448-0.102c-0.123-0.025-0.2-0.038-0.234-0.038
	c-0.211,0-0.376,0.064-0.499,0.19c-0.121,0.126-0.212,0.388-0.271,0.783h-0.467v-5.875h0.467c0.11,0.615,0.238,1.152,0.385,1.61
	c0.147,0.46,0.314,0.845,0.5,1.157c0.186,0.303,0.425,0.585,0.72,0.846s0.625,0.486,0.992,0.677
	c0.366,0.188,0.762,0.337,1.188,0.441c0.425,0.105,0.86,0.157,1.308,0.157c0.529,0,1.006-0.075,1.428-0.228
	c0.42-0.15,0.779-0.355,1.073-0.612c0.295-0.257,0.519-0.555,0.676-0.896c0.155-0.341,0.233-0.697,0.233-1.067
	c0-0.548-0.114-1.009-0.341-1.384c-0.229-0.374-0.533-0.709-0.915-1.004c-0.384-0.294-0.83-0.576-1.34-0.847
	c-0.51-0.27-1.047-0.572-1.611-0.909c-0.639-0.379-1.257-0.739-1.851-1.08s-1.118-0.716-1.572-1.124
	c-0.455-0.408-0.819-0.874-1.093-1.396c-0.274-0.522-0.411-1.145-0.411-1.87c0-0.605,0.127-1.183,0.379-1.73
	c0.253-0.546,0.603-1.027,1.049-1.439c0.446-0.413,0.975-0.739,1.586-0.979c0.61-0.241,1.278-0.361,2.002-0.361
	c0.892,0,1.857,0.224,2.893,0.67c0.455,0.211,0.788,0.316,0.999,0.316c0.218,0,0.396-0.066,0.536-0.196
	c0.139-0.13,0.25-0.394,0.335-0.79H241.353z"/>
<path d="M250.491,316.444h7.959v-4.901c0-0.403-0.009-0.732-0.025-0.985c-0.017-0.252-0.048-0.461-0.095-0.626
	c-0.047-0.164-0.116-0.294-0.208-0.392c-0.094-0.096-0.215-0.187-0.367-0.271c-0.37-0.202-0.753-0.304-1.148-0.304h-0.607v-0.467
	h7.341l-0.014,0.467h-0.606c-0.159,0-0.328,0.018-0.505,0.051c-0.177,0.034-0.345,0.089-0.506,0.164
	c-0.159,0.075-0.301,0.171-0.423,0.284c-0.122,0.114-0.213,0.25-0.271,0.41c-0.093,0.278-0.139,0.834-0.139,1.668v11.054
	c0,0.403,0.008,0.732,0.024,0.985c0.018,0.253,0.049,0.461,0.097,0.626c0.045,0.164,0.112,0.292,0.201,0.384
	c0.088,0.094,0.208,0.183,0.359,0.266c0.362,0.202,0.75,0.305,1.162,0.305h0.606v0.467h-7.327v-0.467h0.607
	c0.689,0,1.199-0.207,1.527-0.619c0.211-0.262,0.316-0.91,0.316-1.946v-5.217h-7.959v5.217c0,0.403,0.009,0.732,0.025,0.985
	c0.018,0.253,0.048,0.459,0.096,0.619c0.046,0.159,0.115,0.289,0.208,0.385c0.092,0.098,0.214,0.188,0.366,0.271
	c0.362,0.202,0.746,0.305,1.148,0.305h0.619v0.467h-7.339v-0.467h0.606c0.717,0,1.229-0.207,1.541-0.619
	c0.202-0.262,0.303-0.91,0.303-1.946v-11.054c0-0.403-0.008-0.732-0.024-0.985c-0.017-0.252-0.05-0.461-0.095-0.626
	c-0.047-0.164-0.114-0.294-0.202-0.392c-0.089-0.096-0.21-0.187-0.36-0.271c-0.371-0.202-0.758-0.304-1.162-0.304h-0.606v-0.467
	h7.339v0.467h-0.619c-0.168,0-0.339,0.018-0.51,0.051c-0.173,0.034-0.338,0.089-0.493,0.164c-0.156,0.075-0.296,0.171-0.417,0.284
	c-0.123,0.114-0.213,0.25-0.271,0.41c-0.102,0.271-0.152,0.826-0.152,1.668V316.444z"/>
<path d="M273.135,325.162v0.467h-7.339v-0.467h0.606c0.715,0,1.229-0.207,1.541-0.619c0.201-0.262,0.303-0.91,0.303-1.946V311.53
	c0-0.404-0.01-0.733-0.024-0.985c-0.018-0.253-0.05-0.461-0.096-0.625c-0.047-0.164-0.113-0.293-0.202-0.386
	c-0.088-0.092-0.209-0.181-0.36-0.265c-0.371-0.202-0.758-0.304-1.161-0.304h-0.606v-0.467h7.339v0.467h-0.619
	c-0.708,0-1.217,0.207-1.528,0.619c-0.21,0.262-0.315,0.909-0.315,1.945v11.066c0,0.403,0.008,0.732,0.024,0.985
	c0.018,0.253,0.049,0.459,0.095,0.619c0.046,0.159,0.116,0.289,0.208,0.385c0.094,0.098,0.216,0.188,0.367,0.271
	c0.363,0.202,0.745,0.305,1.149,0.305H273.135z"/>
<path d="M290.029,308.499v4.017h-0.289c-0.069-0.539-0.18-0.996-0.336-1.371c-0.155-0.374-0.36-0.677-0.612-0.909
	c-0.253-0.23-0.56-0.4-0.923-0.506c-0.362-0.104-0.783-0.157-1.263-0.157h-2.414v13.088c0,1.053,0.115,1.71,0.342,1.971
	c0.312,0.354,0.804,0.531,1.478,0.531h0.595v0.467h-7.264v-0.467h0.606c0.725,0,1.237-0.22,1.54-0.658
	c0.186-0.261,0.279-0.876,0.279-1.844v-13.088h-2.061c-0.521,0-0.977,0.037-1.364,0.114c-0.388,0.075-0.715,0.219-0.983,0.429
	c-0.271,0.211-0.489,0.51-0.659,0.896c-0.168,0.388-0.294,0.89-0.378,1.504h-0.48v-4.017H290.029z"/>
<path d="M238.706,116.85c0.134,0.185,0.374,0.26,0.588,0.183l6.89-2.442c0.179-0.063,0.308-0.221,0.337-0.409l1.799-12.144
	c0.027-0.188-0.05-0.376-0.204-0.489c-0.153-0.113-0.355-0.132-0.527-0.05l-17.318,8.31c-0.143,0.068-0.246,0.198-0.278,0.353
	l-10.14,46.173c-0.042,0.194,0.03,0.394,0.188,0.516c0.092,0.071,0.203,0.108,0.314,0.108c0.079,0,0.158-0.018,0.231-0.055
	l12.423-6.265c0.071-0.036,0.134-0.088,0.181-0.152l8.902-11.928c0.041-0.056,0.071-0.119,0.088-0.187l1.505-6.199
	c0.046-0.192-0.021-0.394-0.173-0.519c-0.153-0.125-0.365-0.152-0.543-0.068l-10.033,4.659l1.808-10.422l1.449,1.432
	c0.103,0.101,0.241,0.154,0.384,0.148c0.143-0.006,0.277-0.072,0.369-0.181l6.876-8.138c0.148-0.177,0.162-0.431,0.031-0.622
	c-0.13-0.191-0.372-0.271-0.591-0.196l-7.664,2.631l1.079-6.22l4.379-1.473l-2.339,3.027
	C238.576,116.414,238.572,116.665,238.706,116.85z"/>
<path d="M199.784,162.566l-6.621-4.155c-0.133-0.083-0.295-0.101-0.443-0.05c-0.147,0.052-0.264,0.167-0.315,0.315l-3.032,8.65
	c-0.065,0.186-0.018,0.393,0.121,0.533c0.098,0.099,0.23,0.151,0.365,0.151c0.056,0,0.113-0.009,0.168-0.028l9.037-3.126
	c0.134-0.046,0.243-0.146,0.301-0.275l0.615-1.369C200.085,162.979,200.002,162.703,199.784,162.566z"/>
<path d="M209.11,119.185c-0.075-0.254-0.334-0.41-0.595-0.355l-23.671,4.858c-0.129,0.026-0.243,0.102-0.318,0.209l-1.179,1.69
	c-0.107,0.154-0.122,0.354-0.039,0.522c0.083,0.168,0.251,0.277,0.439,0.285l19.687,0.812l-5.781,16.496
	c-0.077,0.221,0.005,0.466,0.199,0.597l7.67,5.135c0.126,0.084,0.281,0.109,0.428,0.067c0.146-0.042,0.266-0.146,0.328-0.283
	l2.63-5.847l3.384,10.377c0.037,0.113,0.113,0.21,0.213,0.274l3.994,2.552c0.083,0.053,0.18,0.081,0.275,0.081
	c0.067,0,0.134-0.013,0.197-0.039c0.155-0.064,0.27-0.2,0.306-0.364l9.048-41.006c0.04-0.182-0.022-0.372-0.162-0.495
	c-0.139-0.124-0.334-0.163-0.51-0.101l-11.536,4.048c-0.184,0.064-0.316,0.228-0.34,0.422s0.064,0.385,0.227,0.492l3.229,2.127
	l-2.996,14.515L209.11,119.185z"/>
<path d="M366.437,256.266l-107.2-69.713l15.991-8.005l68.48,40.363c0.237,0.141,0.543,0.069,0.693-0.163
	c0.149-0.231,0.091-0.538-0.134-0.698l-38.863-27.592l3.715-0.938c0.192-0.049,0.34-0.204,0.378-0.398
	c0.04-0.195-0.037-0.394-0.196-0.512l-21.745-16.233l8.144-4.076c0.063-0.032,0.118-0.076,0.163-0.129l4.474-5.324l39.847-21.066
	c0.246-0.13,0.345-0.433,0.221-0.683c-0.124-0.25-0.424-0.356-0.678-0.238l-58.253,26.974l-3.929-2.933
	c-0.161-0.12-0.375-0.135-0.552-0.041l-7.634,4.128l5.504-12.945c0.064-0.153,0.053-0.327-0.033-0.468
	c-0.087-0.142-0.235-0.233-0.4-0.246l-10.703-0.813l12.136-9.16c0.07-0.054,0.126-0.124,0.161-0.206l3.358-7.709
	c0.042-0.098,0.054-0.206,0.032-0.31l-0.4-1.928c-0.052-0.25-0.296-0.423-0.532-0.409l-17.602,0.985
	c-0.029,0.001-0.058,0.006-0.087,0.012l-1.583,0.365l0.95-5.958c0.023-0.143-0.016-0.289-0.105-0.402s-0.224-0.183-0.367-0.192
	l-4.719-0.314l67.402-34.042c0.24-0.121,0.346-0.406,0.244-0.654c-0.102-0.248-0.375-0.376-0.631-0.295l-52.135,16.64
	c-0.049,0.016-0.096,0.04-0.138,0.069l-7.431,5.216l4.371-29.036l13.813-12.313c0.18-0.16,0.225-0.423,0.107-0.633
	c-0.117-0.21-0.362-0.311-0.595-0.244l-12.129,3.573l-4.971-1.188c-0.136-0.032-0.277-0.008-0.396,0.066l-56.872,36.087
	c-0.223,0.142-0.302,0.428-0.185,0.664c0.118,0.236,0.396,0.344,0.643,0.25l51.693-19.62l-6.093,5.288
	c-0.096,0.083-0.157,0.198-0.173,0.323l-1.965,15.462l-11.829,15.227c-0.146,0.187-0.145,0.45,0.003,0.635
	c0.147,0.186,0.403,0.246,0.617,0.147l9.744-4.484l-1.608,12.66l-2.143,0.493c-0.121,0.028-0.229,0.099-0.301,0.199l-6.626,9.135
	c-0.094,0.129-0.122,0.295-0.076,0.448c0.047,0.154,0.16,0.277,0.311,0.334l7.143,2.711l-2.903,22.843l-2.929-1.904l2.256-18.576
	c0.028-0.232-0.104-0.455-0.322-0.541l-4.755-1.863c-0.137-0.053-0.29-0.047-0.42,0.02l-16.286,8.256l-26.66-17.347l5.653-7.729
	c0.03-0.042,0.054-0.088,0.071-0.137l1.726-5.034c0.053-0.153,0.029-0.322-0.062-0.456c-0.092-0.134-0.241-0.217-0.403-0.224
	l-28.712-1.232c-0.187-0.006-0.358,0.083-0.457,0.239s-0.106,0.353-0.02,0.516l1.703,3.215l-7.276,3.128
	c-0.06,0.025-0.115,0.063-0.161,0.109l-13.606,13.643c-0.172,0.172-0.2,0.44-0.067,0.644s0.39,0.286,0.617,0.198l4.623-1.792
	l-3.818,8.729l-8.729-4.898l3.208-1.771c0.044-0.024,0.084-0.056,0.12-0.092l23.031-23.635l53.212-31.49
	c0.234-0.138,0.319-0.434,0.197-0.675c-0.122-0.242-0.414-0.346-0.661-0.24l-66.648,28.542l-13.705-7.675
	c-0.143-0.081-0.316-0.087-0.465-0.019c-0.149,0.068-0.257,0.204-0.29,0.365l-1.021,5.054c-0.042,0.204,0.044,0.412,0.216,0.528
	l7.509,5.068l-5.135,2.199c-0.198,0.085-0.322,0.285-0.311,0.5c0.011,0.216,0.157,0.401,0.363,0.464l10.285,3.137l-19.451,12.392
	l6.975-34.433c0.045-0.224-0.063-0.452-0.266-0.558c-0.202-0.105-0.451-0.064-0.609,0.1l-2.476,2.583L92.855,87.331
	c-0.241-0.135-0.544-0.056-0.689,0.179s-0.079,0.541,0.15,0.696c0,0,18.683,12.633,41.843,28.271l-14.921,15.566l3.002-12.396
	c0.048-0.201-0.028-0.412-0.194-0.535c-0.167-0.123-0.391-0.133-0.568-0.028l-15.068,8.982L48.083,96.319
	c-0.24-0.131-0.541-0.051-0.683,0.182c-0.144,0.232-0.081,0.536,0.144,0.692l21.866,15.22l3.736,4.896
	c0.036,0.047,0.08,0.087,0.128,0.119l31.139,20.175c0.167,0.107,0.379,0.111,0.547,0.008l4.9-2.984l-3.198,15.45
	c-0.028,0.135,0,0.276,0.077,0.391l2.366,3.516c0.083,0.123,0.214,0.204,0.362,0.223c0.147,0.019,0.294-0.027,0.405-0.125
	l12.254-10.844l-13.713,52.411l-67.888,40.12c-0.228,0.136-0.316,0.423-0.202,0.663c0.113,0.239,0.392,0.354,0.64,0.263
	l33.892-12.377l5.15,0.678c0.101,0.014,0.204-0.004,0.295-0.049l23.493-11.644l-3.591,13.723l-26.802,14.57
	c-0.234,0.127-0.332,0.412-0.227,0.656c0.105,0.243,0.38,0.366,0.632,0.284l24.439-8.029l-3.619,13.831l-20.54,13.39
	c-0.074,0.048-0.134,0.114-0.175,0.192l-6.071,11.638l-21.153,13.805c-0.225,0.146-0.298,0.441-0.17,0.677
	c0.129,0.236,0.418,0.332,0.662,0.223l41.936-18.855l-6.626,25.323c-0.065,0.249,0.063,0.508,0.301,0.605
	c0.063,0.026,0.13,0.038,0.195,0.038c0.179,0,0.351-0.093,0.445-0.255l16.821-28.978l40.064-20.057l-4.086,19.918
	c-0.041,0.198,0.039,0.401,0.203,0.52c0.164,0.119,0.381,0.129,0.557,0.029l1.324-0.763c0.103-0.061,0.182-0.153,0.224-0.264
	l8.644-22.877l23.579-11.805l-2.395,13.351c-0.031,0.174,0.029,0.352,0.16,0.471s0.313,0.162,0.484,0.115l1.943-0.539
	c0.144-0.04,0.263-0.141,0.327-0.276l8.312-17.54l4.298-2.152l18.058,11.421c0.082,0.052,0.178,0.08,0.274,0.08h4.926l22.085,6.767
	c0.243,0.076,0.503-0.039,0.612-0.269c0.111-0.229,0.036-0.505-0.174-0.647l-34.086-23.205l22.476-11.252l18.557,9.376
	l-4.245,33.407c-0.033,0.261,0.135,0.504,0.39,0.564c0.252,0.061,0.515-0.078,0.604-0.325l10.748-29.859l67.082,33.892
	c0.243,0.123,0.538,0.035,0.675-0.197c0.138-0.233,0.07-0.534-0.152-0.686l-32.132-21.832l1.434-1.577
	c0.104-0.116,0.152-0.273,0.126-0.429c-0.024-0.153-0.118-0.288-0.255-0.365l-33.521-18.811l2.959-18.535
	c42.018,23.916,114.842,64.941,115.576,65.355c0.242,0.136,0.549,0.056,0.692-0.183
	C366.739,256.726,366.669,256.416,366.437,256.266z M259.886,164.361l-3.442,15.063l-4.473,2.071l2.727-17.077L259.886,164.361z
	 M257.413,145.355l-2.675-1.804l11.441-0.48l-9.833,10.602l1.287-7.807C257.667,145.667,257.581,145.467,257.413,145.355z
	 M239.148,196.608l-1.079,8.497l-7.494-4.205L239.148,196.608z M188.86,198.808l3.843-4.452l15.062,7.61l-21.633,10.018l-0.281-0.19
	L188.86,198.808z M188.321,179.658l-1.078-1.635l8.562-1.459l-8.42,9.209l1.013-5.744
	C188.421,179.901,188.394,179.768,188.321,179.658z M173.156,217.484l-0.1,0.554l-20.093,9.305l6.902-18.265L173.156,217.484z
	 M158.333,193.296c0.042-0.151,0.012-0.313-0.08-0.439l-1.247-1.714l8.986-2.346l-9.544,11.341L158.333,193.296z M175.973,186.183
	c0.097-0.231,0.012-0.499-0.2-0.633l-10.784-6.794c-0.144-0.091-0.323-0.104-0.479-0.037l-12.222,5.311
	c-0.083,0.036-0.154,0.093-0.208,0.165l-11.722,15.762c-0.134,0.18-0.136,0.425-0.005,0.606c0.13,0.183,0.363,0.259,0.576,0.189
	l9.788-3.169l-9.894,31.395c-0.051,0.161-0.02,0.336,0.083,0.469l1.978,2.561l-1.579,0.731l-5.73-7.077
	c-0.156-0.193-0.427-0.246-0.646-0.129L117.02,235.3c-0.212,0.116-0.315,0.362-0.248,0.595c0.067,0.231,0.283,0.381,0.528,0.369
	l7.718-0.511l-17.809,11.542l4.607-14.689l13.713-12.719l-0.951,5.801c-0.039,0.235,0.09,0.468,0.311,0.559
	c0.221,0.091,0.474,0.019,0.614-0.175l13.796-19.189c0.14-0.194,0.127-0.46-0.031-0.64c-0.159-0.181-0.421-0.227-0.631-0.111
	l-22.321,12.135l4.149-13.226l13.468-6.676l-2.135,6.953c-0.073,0.239,0.036,0.497,0.26,0.609s0.495,0.049,0.645-0.152
	l17.859-24.114l24.006-10.502l2.213,3.433l-6.983,2.317c-0.187,0.062-0.322,0.225-0.348,0.42c-0.025,0.194,0.062,0.387,0.225,0.496
	l9.466,6.298l-3.693,20.589l-5.607-3.817L175.973,186.183z M131.94,167.736l-4.981-6.596l19.525,9.865l-1.264,2.892l-18.397,10.872
	l5.197-16.568C132.07,168.042,132.04,167.869,131.94,167.736z M173.395,152.548l-0.835-1.157c-0.134-0.186-0.376-0.259-0.591-0.182
	l-8.14,2.945l2.991-9.545l6.179-1.925l4.512,3.041l-2.884,13.469l-10.879,6.956l-0.721-4.523l10.277-8.379
	C173.514,153.075,173.554,152.769,173.395,152.548z M218.429,177.833l1.508-5.979l9.229-3.583l-1.753,11.623L218.429,177.833z
	 M204.356,180.854c0.048-0.056,0.083-0.121,0.104-0.191l2.908-9.876c0.072-0.246-0.048-0.507-0.281-0.614l-6.993-3.171
	c-0.118-0.054-0.252-0.06-0.375-0.02l-14.405,4.779l4.597-17.686c9.059,6.097,16.271,10.941,21.452,14.407l-4.122,15.102
	c-0.063,0.229,0.039,0.47,0.246,0.585l13.782,7.646c0.143,0.079,0.313,0.085,0.462,0.019l15.563-7.035
	c0.127-0.058,0.225-0.163,0.271-0.292l2.91,1.664l-0.087,0.688l-19.085,8.837l-20.047-11.25L204.356,180.854z M189.405,135.675
	l-3.208,7.63l-0.943-5.07c-0.024-0.133-0.102-0.251-0.214-0.329l-3.27-2.256L189.405,135.675z"/>
</svg>
